<?xml version="1.0" encoding="utf-8"?>
<!-- Generator: Adobe Illustrator 24.3.0, SVG Export Plug-In . SVG Version: 6.00 Build 0)  -->
<svg version="1.1" id="Layer_1" xmlns="http://www.w3.org/2000/svg" xmlns:xlink="http://www.w3.org/1999/xlink" x="0px" y="0px"
	 viewBox="0 0 102 30" style="enable-background:new 0 0 102 30;" xml:space="preserve">
<style type="text/css">
	.st0{fill:#FFFFFF;}
</style>
<g>
	<path d="M24,0.1c-0.1,0.1-0.2,0.2-0.3,0.3c-1,1-1.9,2.1-2.6,3.3c-0.7,1.1-1.3,2.3-1.7,3.6c-0.5,1.5-1,3-1,4.6c0,0.8,0,1.5,0.1,2.3
		c0,1.2,0.3,2.3,0.7,3.4c0.3,0.9,0.8,1.9,1.3,2.7c0.4,0.7,0.9,1.3,1.4,1.9c1.1,1.3,2.4,2.2,3.8,2.9c2.6,1.4,5.4,1.8,8.4,1.6
		c2.6-0.2,5.1-1,7.4-2.3c1.7-0.9,3.2-2.1,4.6-3.5c0.2-0.2,0.3-0.4,0.5-0.5c0.1-0.1,0.2-0.1,0.3-0.1c0,0,0,0.1,0.1,0.1
		c-0.5,0.7-1,1.5-1.6,2.2c-0.8,1-1.6,1.9-2.6,2.7c-1.3,1.1-2.7,2-4.2,2.8c-2.4,1.2-5,1.8-7.7,2c-1.7,0.1-3.4-0.1-5.1-0.5
		c-1.9-0.4-3.7-1.3-5.3-2.4c-0.8-0.6-1.5-1.2-2.2-1.9c-0.6-0.7-1.2-1.4-1.7-2.2c-0.5-0.8-0.9-1.8-1.3-2.7c-0.5-1-0.6-2.1-0.8-3.1
		c-0.2-1.4-0.2-2.7,0-4.1c0.2-0.9,0.3-1.9,0.6-2.8c0.3-0.9,0.8-1.9,1.2-2.8c0.3-0.6,0.7-1.1,1-1.7c0.7-1.1,1.6-2.1,2.6-3
		c1.1-1,2.2-1.8,3.4-2.6c0.2-0.1,0.3-0.2,0.5-0.3C24,0,24,0.1,24,0.1z"/>
	<path d="M20.4,15.8c0.3,0.2,0.6,0.5,0.9,0.7c0.7,0.6,1.3,1.3,2,1.9c1.3,1.1,2.6,2,4.1,2.7c1.2,0.6,2.6,0.8,3.9,0.8
		c2.2,0,4.3-0.6,6.1-1.7c1.4-0.8,2.5-1.9,3.3-3.4c0.6-1.2,1.2-2.5,1.9-3.7c0.2-0.3,0.4-0.6,0.7-0.8c0.5-0.4,1.1-0.2,1.4,0.3
		c0.2,0.3,0.3,0.6,0.3,1c0.1,1.4,0.1,2.8-0.5,4.2c-0.6,1.3-1.4,1.8-2.8,1.6c-0.5-0.1-0.8,0.1-1.1,0.5c-1,1.2-1.9,2.5-3.2,3.5
		c-1.7,1.4-3.6,2.1-5.8,2.1c-1.2,0-2.5-0.3-3.6-0.8c-2.4-1-4.1-2.9-5.5-5c-0.7-1-1.3-2.1-1.9-3.2c-0.1-0.2-0.1-0.4-0.2-0.5
		C20.4,15.8,20.4,15.8,20.4,15.8z M41.3,18.6c1-0.3,1.9-0.6,2.7-1.3c0.9-0.8,1.1-1.8,0.8-3c-0.1-0.4-0.4-0.7-0.8-0.8
		c-0.4-0.1-0.7,0.2-0.9,0.6c-0.1,0.3-0.2,0.5-0.3,0.8c-0.4,1.1-0.8,2.2-1.4,3.3C41.4,18.3,41.3,18.4,41.3,18.6z"/>
	<path d="M22.2,15.4c0.2,0.1,0.3,0.1,0.4,0.2c1.6,0.8,3.2,1.5,5,1.8c1.3,0.2,2.6,0.1,3.8-0.5c2.4-1.2,5-1.9,7.7-2.2
		c0.4,0,0.9,0,1.3,0c0.6,0.1,0.7,0.3,0.5,0.9c-0.4,0.9-1.1,1.7-1.8,2.5c-1.3,1.4-2.7,2.4-4.5,3c-2,0.7-4,0.5-6-0.2
		c-2-0.7-3.7-2-5.1-3.7c-0.5-0.6-0.9-1.1-1.4-1.7C22.2,15.6,22.2,15.5,22.2,15.4z"/>
	<path d="M51.9,14.6c0.7-0.3,1-0.9,1.4-1.5c0.4-0.8,0.8-1.7,0.9-2.6c0-0.1,0-0.2,0-0.3c-0.5,0.1-0.9,0.5-1.3,0.8
		c-1.3,1.2-2.3,2.6-3.2,4.2c-0.5,0.9-1,1.9-1.1,3c-0.2,1.3,0.2,1.8,1.5,1.6c0.7-0.1,1.4-0.4,2-0.9c0.6-0.5,1.1-1,1.7-1.5
		c0.3-0.2,0.5-0.5,0.7-0.8c0.4-0.4,0.7-0.8,0.9-1.4c0.3-0.8,0.9-1.6,1.6-2.1c0.4-0.3,0.5-0.2,0.9,0c0.2,0.2,0.2,0.2,0.2,0.6
		c0.7,0.1,1.1-0.3,1.5-0.8c0.8,0.2,1.1,0.7,0.8,1.4c-0.3,0.8-0.6,1.5-0.9,2.3c-0.1,0.1-0.1,0.3-0.1,0.5c0.1-0.1,0.1-0.3,0.2-0.4
		c0.5-0.8,0.9-1.7,1.4-2.5c0.2-0.3,0.4-0.6,0.6-0.9c0.4-0.5,0.5-0.5,0.9-0.3c0.5,0.3,0.7,0.6,0.5,1.1c-0.3,0.9-0.7,1.7-1,2.6
		c-0.1,0.3-0.2,0.5-0.2,0.8c0,0,0.1,0,0.1,0.1c0.1-0.1,0.2-0.3,0.3-0.4c0.4-0.6,0.7-1.3,1.1-1.9c0.1-0.2,0.1-0.4,0.4-0.4
		c0,0,0.1,0,0.1-0.1c0.2-0.6,0.6-1.1,0.5-1.7c0.4-0.1,0.9,0.2,0.9,0.6c0,0.4-0.1,0.8-0.2,1.1c0.3-0.4,0.6-0.9,0.9-1.4
		c0.4-0.5,0.6-0.6,1.1-0.2c0.6,0.5,0.7,1.1,0.6,1.8c-0.2,0.8-0.5,1.6-1.1,2.3c-0.7,0.9-1.5,0.8-2.1-0.2c-0.1-0.1-0.1-0.2-0.2-0.3
		c-0.6,1.2-1.2,2.3-1.4,3.6c-0.7,0-1.1-0.5-0.8-1.2c0.2-0.7,0.5-1.4,0.8-2.1c0.1-0.1,0.1-0.3,0.1-0.5c-0.2,0.3-0.4,0.6-0.7,0.9
		c-0.2,0.2-0.3,0.4-0.6,0.3c-0.3-0.1-0.6-0.3-0.7-0.7c0-0.3,0-0.6,0.1-0.8c0.2-0.7,0.5-1.3,0.7-1.9c0.1-0.1,0.1-0.3,0.2-0.4
		c0,0-0.1,0-0.1-0.1c-0.2,0.3-0.5,0.6-0.7,0.9c-0.2,0.3-0.4,0.7-0.7,1c-0.2,0.3-0.4,0.7-0.6,1c-0.2,0.3-0.4,0.7-0.6,1
		c-0.8-0.2-1.1-0.6-0.9-1.3c0.2-0.7,0.6-1.5,0.8-2.2c0.1-0.2,0.1-0.4,0.2-0.6C59,14,58.6,14,58.1,14.1c0,0.4,0,0.8,0,1.2
		c-0.1,0.7-0.3,1.3-0.6,1.9c-0.2,0.4-0.5,0.8-1,0.7c-0.6,0-0.9-0.4-1.1-0.9c-0.1-0.2-0.1-0.4-0.2-0.7c-0.1,0.1-0.2,0.2-0.2,0.3
		c-0.8,0.9-1.5,1.8-2.3,2.7c-0.5,0.5-1,1-1.8,1.1c-0.3,0.1-0.7,0.1-1,0c-0.6-0.1-1.1-0.5-1.5-0.9c-0.7-0.6-0.7-1.5-0.5-2.3
		c0.2-0.7,0.4-1.3,0.7-1.9c0.7-1.6,1.7-3.1,3-4.4c0.5-0.5,1-0.9,1.5-1.3c1-0.6,2.1,0,2.1,1.2c0,0.4-0.1,0.7-0.1,1.1
		c-0.2,0.8-0.6,1.6-1,2.3c-0.2,0.3-0.4,0.5-0.6,0.7C52.7,15.5,52.2,15.3,51.9,14.6z M64.8,17.2c1-0.4,2.1-2.6,1.9-3.6
		c-0.2,0.2-0.5,0.4-0.7,0.6c-0.4,0.6-0.8,1.2-1.3,1.8C64.3,16.5,64.5,16.8,64.8,17.2z M56,17.5c1-0.5,1.8-2.2,1.6-3.5
		c-0.7,0.8-1.3,1.7-1.6,2.7C56,16.9,56,17.2,56,17.5z"/>
	<path d="M71.4,13.7c0-0.3,0-0.5,0-0.7c0.7,0,1.1,0.6,0.9,1.2c-0.3,0.9-0.7,1.8-1,2.7c-0.1,0.2-0.1,0.4-0.1,0.6
		c0.1-0.1,0.2-0.3,0.3-0.4c0.5-0.9,1-1.8,1.5-2.6c0.2-0.3,0.4-0.6,0.6-1c0.3-0.5,0.4-0.6,0.8-0.4c0.6,0.3,0.8,0.7,0.6,1.1
		c-0.3,0.9-0.7,1.8-1,2.7c-0.1,0.1-0.1,0.3-0.1,0.4c0.5-0.9,1-1.8,1.5-2.7c0.3-0.4,0.5-0.8,0.9-1.2c0.3-0.4,0.5-0.5,0.8-0.3
		c0.5,0.3,0.7,0.6,0.5,1.1c-0.1,0.4-0.3,0.8-0.5,1.2c-0.2,0.6-0.4,1.1-0.6,1.7c-0.1,0.2-0.1,0.3-0.1,0.5c0,0,0.1,0,0.1,0
		c0.2-0.4,0.5-0.8,0.7-1.2c0.2-0.4,0.4-0.8,0.6-1.1c0-0.1,0.1-0.2,0.1-0.2c0.6-0.2,0.5-0.7,0.7-1.1c0.1-0.2,0.1-0.5,0.2-0.8
		c0.6,0,1,0.5,0.8,1.2c-0.2,0.6-0.4,1.1-0.7,1.7c-0.2,0.4-0.3,0.8-0.4,1.2c0.1-0.1,0.1-0.2,0.2-0.3c0.5-0.8,0.9-1.7,1.4-2.5
		c0.2-0.3,0.4-0.6,0.7-0.9c0.4-0.5,0.5-0.5,0.9-0.3c0.5,0.3,0.7,0.6,0.5,1.1c-0.3,0.9-0.7,1.8-1,2.7c-0.1,0.2-0.1,0.5-0.2,0.7
		c0,0,0.1,0,0.1,0c0.1-0.1,0.2-0.3,0.3-0.4c0.3-0.6,0.7-1.2,1-1.9c0.1-0.2,0.1-0.5,0.5-0.5c0.1,0,0.1-0.2,0.2-0.3
		c0.3-0.4,0.5-0.8,0.8-1.2c0.5-0.6,1-0.6,1.6-0.1c0.1,0.1,0.3,0.2,0.5,0.4c0-0.2,0-0.4,0-0.6c0.6-0.1,1.1,0.5,0.9,1.1
		c-0.3,0.9-0.7,1.8-1,2.7c-0.1,0.2-0.1,0.5-0.2,0.7c0.7-0.8,1.2-1.8,1.7-2.7c0.3,0.1,0.4,0.2,0.2,0.5c-0.5,0.8-1,1.5-1.5,2.3
		c-0.4,0.5-1.1,0.4-1.3-0.2c-0.1-0.2-0.1-0.3-0.1-0.5c-0.2,0.3-0.4,0.6-0.7,0.8C83.6,18,83.4,18,83,17.7c-0.5-0.4-0.6-1-0.5-1.7
		c-0.2,0.2-0.3,0.5-0.5,0.7c-0.2,0.3-0.4,0.6-0.6,0.8c-0.2,0.2-0.3,0.4-0.6,0.3c-0.3-0.1-0.6-0.3-0.7-0.7c0-0.3,0-0.6,0.1-0.8
		c0.2-0.7,0.5-1.3,0.7-2c0.1-0.1,0.1-0.3,0.1-0.5c-1.1,1.2-1.8,2.6-2.7,3.9c-0.8-0.2-1-0.5-0.9-1.5c-0.3,0.4-0.5,0.7-0.7,1.1
		c-0.4,0.5-0.5,0.6-0.8,0.4c-0.5-0.2-0.7-0.6-0.6-1.1c0.1-0.3,0.2-0.6,0.3-1c0.2-0.6,0.5-1.2,0.7-1.9c-1.1,1.2-1.8,2.7-2.7,4
		c-0.8-0.1-1.1-0.6-0.9-1.3c0.2-0.6,0.4-1.1,0.6-1.7c0.1-0.1,0.1-0.3,0.1-0.5c-0.1,0.2-0.3,0.4-0.4,0.6c-0.5,0.8-1.1,1.7-1.6,2.5
		c-0.1,0.2-0.3,0.5-0.6,0.4c-0.3-0.1-0.6-0.3-0.7-0.7c0-0.1-0.1-0.3-0.1-0.5c-0.2,0.3-0.4,0.6-0.7,0.8C69,18,68.9,18,68.5,17.7
		c-0.5-0.4-0.6-0.9-0.5-1.5c0.2-1.1,0.6-2,1.3-2.8c0.6-0.7,1-0.7,1.7-0.1C71,13.4,71.1,13.5,71.4,13.7z M68.9,17.7
		c0.1,0,0.1,0,0.2,0c0.1-0.1,0.2-0.2,0.3-0.4c0.4-0.8,0.9-1.5,1.3-2.3c0.1-0.3,0.3-0.5,0.4-0.8c0-0.1,0-0.3-0.1-0.4
		c-0.1-0.1-0.3,0-0.4,0c-0.1,0-0.1,0.1-0.2,0.1c-0.8,0.8-1.4,1.8-1.6,2.9C68.8,17.1,68.9,17.4,68.9,17.7z M83.6,17.7
		c0.1,0,0.1-0.1,0.2-0.1c0.6-1.1,1.3-2.2,1.9-3.4c0.1-0.1,0-0.3-0.1-0.4c-0.1-0.1-0.3-0.1-0.4,0c-0.1,0-0.1,0.1-0.2,0.1
		c-0.8,0.8-1.4,1.8-1.6,2.9C83.4,17.1,83.4,17.4,83.6,17.7z"/>
	<path d="M35.1,6.1c0.4,0.5,0.4,1.1,0.3,1.6c-0.1,0.8-0.5,1.4-1.1,1.9c-0.6,0.5-1.3,0.9-2,1.2c-1,0.4-2,0.8-2.9,1.4
		c-0.6,0.4-1.2,0.9-1.5,1.6c-0.3,0.5-0.4,1.1,0,1.6c0,0,0,0.1,0,0.3c-0.2-0.1-0.4-0.2-0.5-0.3c-1-1.1-1.6-2.3-1.3-3.8
		c0.1-0.4,0.3-0.9,0.6-1.2c1.1-1.3,2.5-2,4.2-2.4c1.2-0.3,2.4-0.7,3.6-1.3C34.8,6.6,35.1,6.5,35.1,6.1z"/>
	<path d="M35.8,7.3c0.2,0.1,0.4,0.2,0.5,0.4c0.7,0.8,1.1,1.7,1.2,2.7c0.1,0.8-0.2,1.5-0.7,2.1c-1.1,1.3-2.5,2-4.2,2.5
		c-1.2,0.3-2.4,0.7-3.5,1.3c-0.3,0.2-0.6,0.3-0.7,0.8c0,0-0.1,0-0.1,0c-0.1-0.1-0.2-0.3-0.2-0.4c-0.3-1,0-1.8,0.6-2.6
		c0.6-0.8,1.5-1.3,2.4-1.7c0.7-0.3,1.5-0.6,2.2-1c0.8-0.4,1.4-0.9,2-1.5c0.2-0.3,0.4-0.6,0.5-0.9c0.2-0.5,0.1-1-0.2-1.4
		C35.7,7.4,35.8,7.3,35.8,7.3z"/>
	<path d="M61.2,22.7c-0.1,0-0.2,0.1-0.2,0c-0.1-0.1-0.2-0.2-0.3-0.4c-0.1,0.1-0.3,0.3-0.5,0.5c-0.1-0.1-0.3-0.2-0.4-0.3
		c-0.4,0.4-0.6,0.4-1.1,0.1c0.2,0,0.4-0.1,0.6-0.1c-0.1-0.2-0.1-0.4-0.2-0.5c-0.1-0.3,0-0.5,0.2-0.7c0.1-0.1,0.3-0.2,0.5,0
		c0.1,0.1,0.2,0.3,0.1,0.4c-0.1,0.1-0.2,0.3-0.3,0.4c0-0.1,0-0.3,0.1-0.4c-0.3,0.3-0.2,0.6,0,0.9c0.4-0.5,0.7-1.1,0.9-1.6
		c-0.1-0.1-0.2-0.2-0.3-0.2c0.1,0,0.1-0.1,0.1-0.1c0.2,0,0.5,0.1,0.4-0.4c0.3,0.2,0.5,0.4,0.7,0.6c-0.2,0-0.3,0-0.5,0.1
		c-0.2,0.6-0.4,1.1-0.7,1.7c0,0,0.1,0,0.1,0c0.2-0.4,0.5-0.7,0.7-1.1c0.3-0.4,0.3-0.4,0.8-0.3c0,0,0.1,0,0.1,0
		c0.1-0.2,0.2-0.1,0.3,0c0.1,0.1,0.1,0.2,0,0.4c0,0.2-0.2,0.4-0.2,0.6c-0.1,0.2-0.1,0.4-0.2,0.7c-0.1-0.1-0.2-0.2-0.3-0.2
		C61.5,22.6,61.4,22.6,61.2,22.7c0.3-0.5,0.5-0.9,0.7-1.4c-0.2,0-0.2,0-0.3,0.1c-0.3,0.3-0.5,0.6-0.6,1
		C61.1,22.5,61.2,22.6,61.2,22.7z"/>
	<path d="M53.8,22.3c0.1,0.1,0.2,0.2,0.3,0.3c0.3,0.4,0.3,0.8-0.1,1.1c-0.5,0.4-1,0.6-1.6,0.5c-0.2-0.1-0.3-0.2-0.5-0.3
		c0.7,0.3,1.3,0,1.8-0.4c0.4-0.4,0.4-0.8-0.1-1.1c-0.1-0.1-0.3-0.1-0.4-0.2c-0.1,0.1-0.2,0.2-0.3,0.3c0-0.1-0.1-0.1,0-0.1
		c0.4-0.8,0.8-1.6,1.3-2.3c0.2-0.4,0.5-0.4,0.7-0.2c0.3,0.2,0.3,0.5,0.3,0.8c-0.1,0.7-0.5,1.3-1.2,1.6
		C53.9,22.2,53.8,22.2,53.8,22.3z M53.2,21.9c0.9,0,1.7-1,1.5-1.9C54,20.5,53.6,21.2,53.2,21.9z"/>
	<path d="M79.5,22.3c-0.3,0.4-0.7,0.8-1,1.2c-0.3,0.3-0.7,0.3-1.1,0c-0.4-0.2-0.5-0.5-0.4-1c0.3-1,0.9-1.8,1.6-2.5
		c0.2-0.2,0.4-0.3,0.7-0.1c0.3,0.2,0.3,0.4,0.2,0.7c-0.1,0.4-0.3,0.8-0.5,1.1c-0.1,0.2-0.2,0.2-0.5,0c0.4-0.4,0.7-0.9,0.8-1.6
		c-0.1,0.1-0.2,0.1-0.3,0.2c-0.8,0.7-1.3,1.5-1.6,2.4c0,0.1,0,0.2-0.1,0.3c0,0.4,0.2,0.6,0.5,0.5c0.4-0.1,0.7-0.3,1-0.5
		C79.1,22.7,79.3,22.5,79.5,22.3C79.5,22.3,79.5,22.3,79.5,22.3z"/>
	<path d="M53,20.6c-0.8,0.7-1.1,1.1-1.2,1.7c-0.3-0.2-0.4-0.3-0.3-0.6c0.1-0.2,0.2-0.4,0.4-0.6c0.3-0.3,0.6-0.6,0.9-0.9
		c0.1-0.1,0.3-0.3,0.5-0.4c0.4,0.2,0.4,0.2,0.3,0.6c-0.1,0.3-0.3,0.6-0.4,1c-0.1,0.4-0.3,0.9-0.4,1.3c-0.1,0.3-0.3,0.7-0.4,1
		c-0.4-0.2-0.4-0.2-0.3-0.6c0.3-0.7,0.5-1.4,0.8-2.1C52.9,20.9,52.9,20.7,53,20.6z"/>
	<path d="M73.7,22.4c-0.1,0.1-0.2,0.3-0.2,0.4c-0.4-0.2-0.4-0.2-0.1-1.3c-0.1,0.2-0.3,0.4-0.4,0.6c-0.1,0.2-0.3,0.4-0.5,0.7
		c-0.1-0.2-0.3-0.3-0.4-0.5c-0.1,0.1-0.2,0.3-0.3,0.5c-0.6-0.4-0.5-1,0.1-1.8c0.3,0.1,0.3,0.2,0.2,0.5c-0.1,0.3-0.2,0.6-0.3,0.9
		c0,0,0.1,0,0.1,0c0.3-0.5,0.6-0.9,0.9-1.4c0.2,0.1,0.2,0.1,0.1,1c0.2-0.3,0.3-0.5,0.5-0.7c0.1-0.2,0.2-0.4,0.5-0.3
		c0.2,0.1,0.2,0.3,0.1,0.5c-0.1,0.3-0.2,0.5-0.3,0.8C73.6,22.4,73.6,22.4,73.7,22.4C73.7,22.4,73.7,22.4,73.7,22.4z"/>
	<path d="M82.2,22.6c0.1-0.2,0.2-0.5,0.3-0.7c0.2-0.3,0.3-0.7,0.5-1c-0.1-0.1-0.2-0.2-0.4-0.3c0.3-0.1,0.6,0,0.6-0.4
		c0.3,0.2,0.4,0.4,0.7,0.6c-0.2,0-0.3,0-0.5,0c-0.2,0.6-0.4,1.1-0.7,1.7c0,0,0,0,0.1,0c0.1-0.1,0.1-0.2,0.2-0.3
		c0.3-0.3,0.5-0.7,0.8-1c0.1-0.1,0.1-0.2,0.2-0.2c0.1,0,0.3,0,0.4,0.1c0.1,0.1,0.1,0.3,0.1,0.4c-0.1,0.2-0.3,0.4-0.5,0.5
		c-0.3,0.2-0.4,0.5-0.1,0.7c-0.4,0-0.4,0-0.7-0.6c-0.2,0.2-0.3,0.4-0.4,0.6C82.5,22.9,82.5,22.3,82.2,22.6L82.2,22.6z"/>
	<path d="M64.7,23.7c-0.4-0.2-0.3-0.4-0.2-0.7c0.3-0.7,0.6-1.4,0.9-2.1c0.1-0.2,0.2-0.4,0.3-0.6c-0.5-0.2-1,0-1.4-0.4
		c0.2,0,0.3,0,0.4,0c0.8,0,1.6,0,2.4,0.1c0.2,0,0.5,0,0.7,0.3c-0.6,0-1.1,0-1.7,0C65.6,21.4,65.2,22.5,64.7,23.7z"/>
	<path d="M73.6,22.4c0.2-0.4,0.5-0.8,0.7-1.1c0.1-0.2,0.3-0.3,0.6-0.1c0,0,0.1,0.1,0.2,0.1c0.4,0,0.5,0,0.3,0.4
		c-0.1,0.2-0.1,0.4-0.2,0.6c0.1-0.1,0.2-0.2,0.4-0.3c-0.4,0.6-0.7,1.2-1.1,1.8c-0.1-0.1-0.3-0.2-0.4-0.3c0.2-0.3,0.4-0.5,0.6-0.8
		c0,0,0,0-0.1-0.1c-0.1,0-0.1,0-0.2,0c0.1-0.4,0.5-0.8,0.5-1.3c-0.4,0.3-0.7,0.7-0.7,1.2c0,0,0.1,0.1,0.1,0.1c-0.1,0-0.2,0.1-0.3,0
		c-0.1-0.1-0.2-0.2-0.3-0.4C73.8,22.3,73.7,22.4,73.6,22.4C73.7,22.4,73.7,22.4,73.6,22.4z"/>
	<path d="M82.2,22.6c-0.1,0.1-0.2,0.2-0.2,0.2c-0.1-0.1-0.2-0.2-0.2-0.3c0-0.1,0-0.3,0.1-0.4c0-0.2,0.1-0.3,0.1-0.5
		c-0.3,0.4-0.5,0.8-0.8,1.2c-0.3-0.1-0.3-0.2-0.3-0.5c0,0,0-0.1-0.2-0.2c0.2-0.4,0.4-0.7,0.6-1.1c0.6,0.3,0.1,0.7,0.1,1.1
		c0.2-0.3,0.4-0.6,0.5-0.8c0.1-0.1,0.2-0.3,0.4-0.2c0.2,0.1,0.2,0.3,0.1,0.5c-0.1,0.2-0.2,0.5-0.3,0.7
		C82.1,22.4,82.2,22.5,82.2,22.6L82.2,22.6z"/>
	<path d="M69.4,22.5c0.2-0.5,0.5-0.9,0.7-1.4c0.3,0.1,0.3,0.1,0.1,1c0.3-0.4,0.5-0.7,0.7-1c0.4,0.2,0.5,0.2,0.4,0.6
		c-0.1,0.3-0.4,0.6-0.3,1c0,0.1-0.2,0.2-0.3,0.1c-0.1-0.1-0.1-0.3-0.1-0.5c0-0.2,0.2-0.4,0.2-0.7c-0.3,0.4-0.5,0.8-0.9,1.3
		c-0.1-0.1-0.2-0.2-0.3-0.3C69.6,22.5,69.5,22.5,69.4,22.5C69.4,22.5,69.4,22.5,69.4,22.5z"/>
	<path d="M56,22.4c0.3-0.5,0.6-0.9,0.8-1.4c0.4,0.1,0.4,0.1,0.3,0.8c0.2-0.3,0.4-0.6,0.6-0.9c0.5,0.3,0.5,0.3,0.1,1
		c-0.1-0.1-0.2-0.2-0.3-0.3c-0.2,0.4-0.5,0.7-0.7,1.1c-0.4-0.2-0.4-0.2-0.2-0.9c-0.2,0.3-0.4,0.5-0.5,0.7C56,22.5,56,22.5,56,22.4z"
		/>
	<path d="M56,22.4c0,0.1,0,0.1,0,0.2c-0.1,0.3-0.3,0.2-0.4,0c-0.1-0.2-0.2-0.1-0.3,0c0.2-0.4,0.4-0.8,0.6-1.3c-0.2,0-0.2,0-0.3,0.1
		c-0.3,0.3-0.5,0.6-0.6,1c0,0.1,0.1,0.2,0.1,0.3c-0.1,0-0.2,0.1-0.2,0.1c-0.1-0.2-0.3-0.4-0.3-0.5c0.1-0.4,0.3-0.7,0.5-1.1
		c0.1-0.2,0.3-0.2,0.5-0.1c0.1,0.1,0.1,0.1,0.3,0c0.2-0.1,0.3,0.1,0.3,0.3c0,0.2-0.1,0.3-0.2,0.5C56.1,22.1,56,22.3,56,22.4z"/>
	<path d="M67.7,22.7c-0.1,0.2-0.2,0.1-0.3,0c-0.1-0.2-0.2-0.4-0.1-0.6c0-0.3,0.2-0.5,0.3-0.7c0.2-0.3,0.3-0.3,0.7-0.2
		c0,0,0.1,0,0.1,0c0.3,0,0.4,0.1,0.3,0.4c-0.1,0.2-0.2,0.4-0.2,0.6c0,0.1,0,0.2,0,0.3c0,0.1,0,0.1,0,0.2c-0.1,0.3-0.3,0.2-0.4,0
		C68,22.5,67.9,22.5,67.7,22.7c0.3-0.5,0.5-0.9,0.7-1.4c-0.2,0-0.2,0-0.3,0.1c-0.3,0.3-0.5,0.6-0.6,1C67.6,22.5,67.6,22.6,67.7,22.7
		z"/>
	<path d="M84.9,22.8c-0.5,0-0.2-0.5-0.5-0.7c0.1-0.3,0.3-0.6,0.5-1c0.4,0.2,0.4,0.2,0.1,1c0.3-0.4,0.5-0.7,0.7-1.1
		c0.4,0.2,0.4,0.2,0.1,1c-0.1-0.1-0.2-0.2-0.4-0.3C85.4,22,85.1,22.4,84.9,22.8z"/>
	<path d="M79.5,22.3c0.1-0.2,0.2-0.4,0.3-0.6c0.1-0.2,0.3-0.4,0.5-0.6c0.1-0.1,0.4-0.1,0.5,0c0.1,0.1,0.1,0.3,0,0.4
		c-0.1,0.2-0.3,0.4-0.5,0.5c-0.4,0.2-0.4,0.5-0.1,0.7c-0.2,0.1-0.4-0.1-0.5-0.2C79.6,22.5,79.6,22.4,79.5,22.3L79.5,22.3z"/>
	<path d="M68.5,22.6c0-0.1,0-0.1,0-0.2c0.3-0.5,0.6-1,0.9-1.4c0.3,0.1,0.4,0.3,0.3,0.6c-0.1,0.3-0.2,0.6-0.4,1c0.1,0,0.1,0,0.2-0.1
		l0,0c-0.1,0.2-0.1,0.3-0.3,0.2c-0.2-0.1-0.2-0.2-0.2-0.4c0-0.1,0.1-0.2,0.1-0.4C68.8,22.2,68.6,22.4,68.5,22.6z"/>
	<path d="M58.4,21c0.3,0.1,0.3,0.2,0.2,0.5c-0.1,0.2-0.1,0.3-0.2,0.4c0,0.1-0.1,0.2-0.1,0.4c-0.1,0.1,0,0.1,0.1,0.2
		c0.1,0.1-0.2,0.2-0.3,0.1c-0.2-0.1-0.2-0.3-0.1-0.5C58.1,21.8,58.3,21.4,58.4,21z"/>
	<path d="M66,22.5c-0.1,0.1-0.1,0.2-0.2,0.3c-0.3-0.1-0.4-0.3-0.3-0.6c0.2-0.4,0.3-0.8,0.5-1.2c0.3,0.1,0.3,0.2,0.2,0.5
		c-0.1,0.2-0.1,0.4-0.2,0.6C66.1,22.2,66.1,22.4,66,22.5z"/>
	<path d="M66,22.5c0-0.1,0.1-0.3,0.1-0.4c0.2-0.4,0.5-0.7,0.7-1.1c0.5,0.2,0.5,0.3,0,1c-0.1-0.1-0.2-0.3-0.2-0.4
		C66.4,21.9,66.2,22.2,66,22.5z"/>
	<path class="st0" d="M41.3,18.6c0.1-0.2,0.1-0.3,0.1-0.4c0.6-1,1-2.1,1.4-3.3c0.1-0.3,0.2-0.5,0.3-0.8c0.2-0.3,0.4-0.6,0.9-0.6
		c0.4,0.1,0.7,0.4,0.8,0.8c0.3,1.1,0.1,2.2-0.8,3C43.2,18,42.3,18.4,41.3,18.6z"/>
	<path class="st0" d="M53.2,21.9c0.4-0.7,0.8-1.4,1.5-1.9C54.8,21,54.1,21.9,53.2,21.9z"/>
</g>
</svg>
