<?xml version="1.0" encoding="utf-8"?>
<!-- Generator: Adobe Illustrator 24.3.0, SVG Export Plug-In . SVG Version: 6.00 Build 0)  -->
<svg version="1.1" id="Layer_1" xmlns="http://www.w3.org/2000/svg" xmlns:xlink="http://www.w3.org/1999/xlink" x="0px" y="0px"
	 viewBox="0 0 102 30" style="enable-background:new 0 0 102 30;" xml:space="preserve">
<g>
	<g>
		<path d="M43.1,5.3L43.1,5.3c0-0.2-0.1-0.4-0.3-0.5c-0.1-0.1-0.3-0.2-0.5-0.2h-0.2V4.5h1V5.3z M43.1,11.5v0.9h-1v-0.1h0.2
			c0.2,0,0.4-0.1,0.5-0.2C43,11.9,43,11.7,43.1,11.5L43.1,11.5z M44.6,4.5v7.9H43V4.5H44.6z M46.6,4.5c0.9,0,1.7,0.2,2.4,0.5
			c0.7,0.3,1.2,0.8,1.5,1.4S51,7.6,51,8.4c0,0.8-0.2,1.5-0.5,2.1s-0.9,1-1.5,1.4c-0.7,0.3-1.5,0.5-2.4,0.5h-2.9l0-0.5
			c0.7,0,1.2,0,1.6,0c0.4,0,0.8,0,1.2,0c0.9,0,1.6-0.3,2.1-0.9c0.5-0.6,0.8-1.5,0.8-2.6c0-1.1-0.3-1.9-0.8-2.6
			C48.1,5.3,47.4,5,46.5,5c-0.4,0-0.8,0-1.3,0s-1,0-1.7,0V4.5H46.6z"/>
		<path d="M52.9,5.3L52.9,5.3c0-0.2-0.1-0.4-0.3-0.5c-0.1-0.1-0.3-0.2-0.5-0.2h-0.2V4.5h1L52.9,5.3z M52.9,11.6l0.1,0.8h-1v-0.1h0.2
			c0.2,0,0.4-0.1,0.5-0.2C52.8,11.9,52.8,11.8,52.9,11.6L52.9,11.6z M54.4,4.5v7.9h-1.5V4.5H54.4z M57.7,4.5V5h-3.4V4.5H57.7z
			 M57.1,8.2v0.5h-2.8V8.2H57.1z M57.6,11.9l0.2,0.5h-3.5v-0.5H57.6z M58.5,10.1l-0.6,2.2h-2.2l0.4-0.5c0.4,0,0.7-0.1,1-0.2
			c0.3-0.1,0.5-0.3,0.7-0.6c0.2-0.3,0.4-0.6,0.5-0.9H58.5z M57.1,7.2v1h-1v0c0.3,0,0.5-0.1,0.6-0.3C56.9,7.8,57,7.6,57,7.3V7.2H57.1
			z M57.1,8.7v1H57V9.6c0-0.2-0.1-0.5-0.2-0.6c-0.2-0.2-0.4-0.3-0.6-0.3v0H57.1z M57.7,4.3v0.3l-1.4-0.1c0.3,0,0.5,0,0.8-0.1
			C57.4,4.4,57.6,4.3,57.7,4.3z M57.7,4.9v1.2h-0.1V6c0-0.3-0.1-0.6-0.3-0.8C57.2,5.1,56.9,5,56.6,5v0H57.7z"/>
		<path d="M60.2,11.6v0.8h-1v-0.1h0.2c0.2,0,0.4-0.1,0.5-0.2C60,11.9,60.1,11.8,60.2,11.6L60.2,11.6z M60.1,4.3l1.4,1.6v6.5h-1.4
			V5.8c0-0.4,0-1-0.1-1.5H60.1z M60.1,4.3l7.6,6.8l0.1,1.4l-7.6-6.8L60.1,4.3z M61.5,11.6c0,0.2,0.1,0.4,0.2,0.5
			c0.1,0.1,0.3,0.2,0.5,0.2h0.2v0.1h-1L61.5,11.6L61.5,11.6z M66.4,5.3c0-0.2-0.1-0.4-0.2-0.5c-0.1-0.1-0.3-0.2-0.5-0.2h-0.2V4.5h1
			L66.4,5.3L66.4,5.3z M67.8,4.5V11c0,0.3,0,0.6,0,0.8c0,0.2,0.1,0.5,0.1,0.8h-0.1l-1.4-1.6V4.5H67.8z M67.8,5.3V4.5h1v0.1h-0.2
			c-0.2,0-0.4,0.1-0.5,0.2C67.9,4.9,67.8,5.1,67.8,5.3L67.8,5.3z"/>
		<path d="M72,5.3l-1.8,0c-0.1-0.2-0.3-0.3-0.5-0.5c-0.2-0.1-0.4-0.2-0.7-0.2h-0.2V4.5h3.7v0.1h-0.1c-0.2,0-0.3,0.1-0.4,0.2
			C71.9,5,71.9,5.1,72,5.3z M71.6,4.5L74,8.8l-1.4,0.3l-2.9-4.6H71.6z M72.6,11.6v0.8h-0.9v-0.1c0,0,0.1,0,0.2,0
			c0.2,0,0.4-0.1,0.5-0.2C72.5,11.9,72.6,11.8,72.6,11.6L72.6,11.6z M74.2,8.9v3.5h-1.6V8.9L74.2,8.9z M76.1,4.5h0.9l-3,4.6L73.5,9
			L76.1,4.5z M74.1,11.6L74.1,11.6c0,0.2,0.1,0.4,0.3,0.5c0.1,0.1,0.3,0.2,0.5,0.2H75v0.1h-0.9V11.6z M75.6,5.3
			c0.1-0.2,0.1-0.3,0-0.5c-0.1-0.1-0.2-0.2-0.4-0.2h-0.2V4.5h2.8v0.1h-0.2c-0.2,0-0.5,0.1-0.7,0.2c-0.2,0.1-0.4,0.3-0.5,0.5
			L75.6,5.3z"/>
		<path d="M45.1,16.1c0.2,0,0.4,0,0.6,0c0.2,0,0.5,0,0.7,0.1c0.2,0,0.4,0.1,0.6,0.1c0.2,0,0.3,0.1,0.4,0.1l-0.1,1.7h-0.1
			c0-0.4-0.2-0.8-0.5-1.1s-0.7-0.4-1.2-0.4s-0.9,0.1-1.2,0.4c-0.3,0.3-0.5,0.6-0.5,1c0,0.2,0,0.4,0.2,0.6c0.1,0.2,0.3,0.4,0.6,0.6
			l2.5,1.9c0.4,0.2,0.6,0.5,0.8,0.9c0.2,0.3,0.2,0.7,0.2,1.1c0,0.8-0.3,1.5-0.9,1.9c-0.6,0.5-1.3,0.7-2.3,0.7c-0.3,0-0.7,0-1-0.1
			c-0.3-0.1-0.6-0.1-0.9-0.3c-0.3-0.1-0.5-0.3-0.7-0.4c-0.1-0.2-0.1-0.4-0.1-0.6c0-0.3,0-0.5,0.1-0.8c0.1-0.3,0.1-0.5,0.2-0.7h0.1
			c0,0.4,0,0.9,0.2,1.2c0.2,0.4,0.5,0.7,0.8,0.9c0.4,0.2,0.8,0.3,1.3,0.3c0.5,0,1-0.2,1.3-0.5c0.3-0.3,0.5-0.7,0.5-1.1
			c0-0.3-0.1-0.5-0.2-0.7s-0.4-0.4-0.7-0.6l-2.4-1.8c-0.4-0.3-0.7-0.6-0.9-1c-0.2-0.4-0.2-0.8-0.2-1.2c0-0.4,0.1-0.8,0.4-1.2
			c0.2-0.3,0.5-0.6,0.9-0.8S44.6,16.1,45.1,16.1z M47.4,16.3l0,0.3H46v-0.3H47.4z"/>
		<path d="M50.7,24.6c-0.1,0.2-0.1,0.3,0,0.4c0,0.1,0.1,0.2,0.2,0.3c0.1,0.1,0.2,0.1,0.3,0.1h0.1v0.1h-2.8v-0.1h0.1
			c0.2,0,0.4-0.1,0.6-0.2c0.2-0.1,0.4-0.3,0.5-0.6H50.7z M53.5,16.1l0.1,1.4l-3.3,8h-0.9l3.4-7.8c0,0,0.1-0.1,0.1-0.3
			c0.1-0.1,0.1-0.3,0.2-0.5c0.1-0.2,0.1-0.3,0.2-0.5c0.1-0.2,0.1-0.3,0.1-0.4H53.5z M55.1,22.3v0.5h-4v-0.5H55.1z M53.5,16.1
			l4.2,9.4h-2l-2.8-7.3L53.5,16.1z M55.4,24.6h1.9c0.1,0.3,0.3,0.5,0.5,0.6c0.2,0.1,0.4,0.2,0.6,0.2h0.1v0.1h-3.8v-0.1h0.1
			c0.2,0,0.3-0.1,0.4-0.2C55.5,25.1,55.5,24.9,55.4,24.6z"/>
		<path d="M60,17.3L60,17.3c0-0.2-0.1-0.4-0.3-0.6c-0.2-0.2-0.4-0.2-0.6-0.2H59v-0.1H60V17.3z M60,24.6v1H59v-0.1h0.2
			c0.2,0,0.4-0.1,0.6-0.2C59.9,25,60,24.8,60,24.6L60,24.6z M61.6,16.3v9.2H60v-9.2H61.6z M61.6,17.3v-1h1.1v0.1c0,0-0.1,0-0.2,0
			c-0.2,0-0.4,0.1-0.6,0.2C61.7,16.9,61.6,17.1,61.6,17.3L61.6,17.3z M65.1,25l0.2,0.5h-3.8V25H65.1z M66,23l-0.7,2.5h-2.5l0.5-0.5
			c0.4,0,0.8-0.1,1.2-0.2c0.3-0.2,0.6-0.4,0.8-0.7c0.2-0.3,0.4-0.7,0.5-1H66z"/>
		<path d="M71.9,16.1c1,0,1.9,0.2,2.7,0.6c0.8,0.4,1.3,0.9,1.8,1.7c0.4,0.7,0.6,1.6,0.6,2.5s-0.2,1.8-0.6,2.5
			c-0.4,0.7-1,1.3-1.8,1.7c-0.8,0.4-1.6,0.6-2.7,0.6c-1,0-1.9-0.2-2.7-0.6c-0.8-0.4-1.3-0.9-1.8-1.7c-0.4-0.7-0.6-1.6-0.6-2.5
			s0.2-1.8,0.6-2.5c0.4-0.7,1-1.3,1.8-1.7C70,16.3,70.9,16.1,71.9,16.1z M71.9,25.2c0.7,0,1.2-0.2,1.7-0.5c0.5-0.4,0.9-0.8,1.1-1.5
			c0.3-0.6,0.4-1.4,0.4-2.3c0-0.9-0.1-1.6-0.4-2.3c-0.3-0.6-0.6-1.1-1.1-1.5s-1.1-0.5-1.7-0.5s-1.2,0.2-1.7,0.5
			c-0.5,0.4-0.9,0.8-1.1,1.5c-0.3,0.6-0.4,1.4-0.4,2.3c0,0.9,0.1,1.6,0.4,2.3c0.3,0.6,0.6,1.1,1.1,1.5
			C70.7,25.1,71.2,25.2,71.9,25.2z"/>
		<path d="M83.5,16.1c1,0,1.9,0.2,2.7,0.6c0.8,0.4,1.3,0.9,1.8,1.7c0.4,0.7,0.6,1.6,0.6,2.5s-0.2,1.8-0.6,2.5
			c-0.4,0.7-1,1.3-1.8,1.7c-0.8,0.4-1.6,0.6-2.7,0.6c-1,0-1.9-0.2-2.7-0.6c-0.8-0.4-1.3-0.9-1.8-1.7c-0.4-0.7-0.6-1.6-0.6-2.5
			s0.2-1.8,0.6-2.5c0.4-0.7,1-1.3,1.8-1.7C81.6,16.3,82.5,16.1,83.5,16.1z M83.5,25.2c0.7,0,1.2-0.2,1.7-0.5
			c0.5-0.4,0.9-0.8,1.1-1.5c0.3-0.6,0.4-1.4,0.4-2.3c0-0.9-0.1-1.6-0.4-2.3c-0.3-0.6-0.6-1.1-1.1-1.5s-1.1-0.5-1.7-0.5
			s-1.2,0.2-1.7,0.5c-0.5,0.4-0.9,0.8-1.1,1.5c-0.3,0.6-0.4,1.4-0.4,2.3c0,0.9,0.1,1.6,0.4,2.3c0.3,0.6,0.6,1.1,1.1,1.5
			C82.2,25.1,82.8,25.2,83.5,25.2z"/>
		<path d="M90.5,24.6v0.9h-1.1v-0.1c0.2,0,0.2,0,0.3,0c0.2,0,0.4-0.1,0.6-0.2S90.4,24.8,90.5,24.6L90.5,24.6z M90.4,16.1l1.5,1.6
			l0,7.8h-1.5v-7.8c0-0.5,0-1-0.1-1.7H90.4z M90.4,16.1l8.2,8.1l0.1,1.5l-8.2-8.1L90.4,16.1z M91.9,24.6c0,0.2,0.1,0.4,0.2,0.6
			c0.2,0.2,0.3,0.2,0.6,0.2c0,0,0.1,0,0.3,0v0.1h-1.1L91.9,24.6L91.9,24.6z M96.2,16.3h1.1v0.9h0c0-0.2-0.1-0.4-0.2-0.6
			c-0.2-0.2-0.3-0.2-0.6-0.2c-0.2,0-0.2,0-0.3,0V16.3z M98.7,16.3V24c0,0.3,0,0.6,0,0.9c0,0.3,0.1,0.5,0.1,0.8h-0.1l-1.5-1.6v-7.8
			H98.7z M99.8,16.3v0.1h-0.2c-0.2,0-0.4,0.1-0.6,0.2c-0.2,0.2-0.2,0.3-0.3,0.6h0v-0.9H99.8z"/>
	</g>
	<g>
		<g>
			<path d="M37.9,14.9c0,2.9-0.6,5.5-1.8,7.8c-1.2,2.3-2.9,4-5.1,5.3c-2.2,1.2-4.8,1.9-7.7,1.9H12.1v-2.4l0.1-0.1l0.1-0.1
				c0.1-0.1,0.2-0.2,0.4-0.3c0.1,0,0.1,0,0.2-0.1c0.1,0,0.2,0,0.4-0.1c0.4,0,0.7,0.1,1.1,0.2c0,0,0.1,0,0.1,0c0,0,0,0,0,0
				c0.6,0.2,1.1,0.6,1.7,0.9c0.7,0.3,1.3,0.6,2.1,0.8c0.2,0,0.4,0.1,0.6,0.1c0.2,0,0.4,0,0.6,0.1c0.4,0,0.8,0,1.2-0.2
				c0.4-0.1,0.7-0.4,0.9-0.8c0.2-0.3,0.3-0.7,0.4-1.1c0.1-0.8,0.1-1.5,0.2-2.2c0-0.3,0.1-0.6,0.3-0.9c0.1-0.1,0.2-0.2,0.3-0.3
				c0,0,0.1,0,0.1-0.1c2.6,0,4.6-0.8,6-2.3c1.4-1.5,2.2-3.6,2.2-6.4c0-2.8-0.7-4.9-2.2-6.4c-1.4-1.5-3.4-2.3-6-2.3h-0.5
				c0-0.1-0.1-0.3-0.1-0.4c-0.3-1-0.8-2-1.4-2.8c-0.6-0.9-1.4-1.6-2.3-2.1c-0.5-0.3-0.9-0.5-1.5-0.6c-0.5-0.1-1-0.2-1.4-0.2
				c0,0,0,0,0,0h7.8c3,0,5.5,0.6,7.7,1.9c2.2,1.2,3.9,3,5.1,5.3C37.3,9.4,37.9,12,37.9,14.9z"/>
			<path d="M22.1,5.8c-0.3-1-0.8-2-1.4-2.8c-0.6-0.9-1.4-1.6-2.3-2.1c-0.5-0.3-0.9-0.5-1.5-0.6c-0.5-0.1-1-0.2-1.4-0.2
				c1,0.1,2,0.4,2.9,1c0.9,0.5,1.6,1.3,2.2,2.2c0.6,0.8,1,1.8,1.3,2.8c0,0.1,0.1,0.2,0.1,0.3h0.4C22.2,6.1,22.1,5.9,22.1,5.8z
				 M21.9,23.6c0,0-0.1,0.1-0.1,0.1C21.8,23.7,21.9,23.7,21.9,23.6C21.9,23.6,21.9,23.6,21.9,23.6L21.9,23.6z"/>
		</g>
		<path d="M22.8,23.6c0,0-0.1,0-0.1,0.1c-0.1,0.1-0.2,0.2-0.3,0.3c-0.2,0.2-0.3,0.5-0.3,0.9c-0.1,0.7,0,1.5-0.2,2.2
			c-0.1,0.4-0.2,0.8-0.4,1.1c-0.2,0.3-0.6,0.6-0.9,0.8C20.1,29,19.7,29,19.3,29c-0.2,0-0.4,0-0.6-0.1c-0.2,0-0.4-0.1-0.6-0.1
			c-0.7-0.2-1.4-0.5-2.1-0.8c-0.6-0.3-1.1-0.6-1.7-0.8c0,0,0,0,0,0c-0.1,0-0.2-0.1-0.3-0.1c-0.3-0.1-0.7-0.2-1.1-0.2
			c-0.1,0-0.2,0-0.3,0.1c0,0,0,0-0.1,0c0,0-0.1,0-0.1,0.1c-0.2,0.1-0.3,0.2-0.4,0.3c0.1-0.1,0.2-0.3,0.4-0.4c0,0,0.1-0.1,0.1-0.1
			c0,0,0,0,0.1,0c0.1,0,0.2-0.1,0.3-0.1c0.4-0.1,0.8,0,1.1,0.1c0.7,0.2,1.4,0.6,2,0.9c0.7,0.3,1.4,0.6,2.1,0.7
			c0.4,0.1,0.7,0.1,1.1,0.1c0.3,0,0.7,0,1-0.2c0.3-0.1,0.6-0.4,0.7-0.6c0,0,0,0,0,0c0,0,0,0,0,0c0,0,0,0,0-0.1
			c0.2-0.3,0.3-0.6,0.3-1c0.1-0.3,0.1-0.7,0.1-1.1c0-0.4,0-0.7,0-1.1c0-0.3,0.1-0.7,0.3-1c0,0,0,0,0,0c0,0,0,0,0-0.1
			c0,0,0,0,0.1-0.1H22.8z"/>
		<path d="M21.5,24.7c0-0.3,0.1-0.7,0.4-1C21.6,24,21.6,24.3,21.5,24.7c0,0.3,0,0.7,0,1.1c0,0.4,0,0.7-0.1,1.1
			c-0.1,0.3-0.2,0.7-0.3,1c0,0,0,0,0,0.1c0.2-0.3,0.3-0.6,0.3-0.9c0.1-0.3,0.1-0.7,0.1-1.1C21.4,25.5,21.4,25.1,21.5,24.7z"/>
		<path d="M25.8,17.8c-0.1,0.2-0.1,0.3-0.2,0.4c-0.2,0.3-0.4,0.5-0.6,0.6c-0.4,0.3-0.7,0.4-1.2,0.6c0,0.1,0.1,0.2,0.1,0.3
			c0.1,0.2,0.2,0.4,0.2,0.7c0,0.1,0,0.3-0.1,0.5c0,0-0.1,0.1-0.1,0.1c0,0,0,0-0.1,0.1l-0.1,0.1l-0.3,0.3c0.2,0.3,0.3,0.5,0.4,0.9
			c0,0.1,0,0.2,0,0.4c0,0.1,0,0.1,0,0.2c0,0.1-0.1,0.1-0.1,0.2c-0.1,0.1-0.2,0.2-0.3,0.2c-0.1,0.1-0.2,0.1-0.3,0.1
			c-0.1,0.1-0.3,0.1-0.4,0.2h-0.9c0,0,0,0,0,0c0.3-0.3,0.7-0.5,1-0.7c0.1,0,0.2-0.1,0.2-0.1c0.1,0,0.1-0.1,0.1-0.1c0,0,0-0.2,0-0.3
			c-0.1-0.3-0.2-0.6-0.4-0.9l-0.1-0.2l0.2-0.2l0.5-0.4l0.1-0.1c0,0,0,0,0,0c0,0,0,0,0,0c0,0,0-0.1,0-0.1c0-0.1-0.1-0.3-0.1-0.5
			c-0.1-0.2-0.2-0.3-0.3-0.5L23,19.1l0.4-0.1c0.5-0.1,0.9-0.3,1.3-0.6c0.2-0.1,0.3-0.3,0.5-0.5c0.1-0.1,0.1-0.2,0.1-0.3
			c0,0,0-0.1,0-0.2c-0.1-0.2-0.2-0.4-0.4-0.6c-0.2-0.2-0.3-0.4-0.5-0.6c-0.4-0.4-0.7-0.8-1-1.2c-0.3-0.4-0.6-0.9-0.8-1.4
			c-0.2-0.5-0.3-1-0.4-1.6C22,11.5,22,11,22.1,10.4l0.1-0.8c0-0.3,0-0.5,0-0.8c0-0.9-0.1-1.8-0.4-2.7c0-0.1-0.1-0.2-0.1-0.3
			c-0.3-1-0.7-1.9-1.3-2.8c-0.6-0.8-1.3-1.6-2.2-2.2c-0.9-0.5-1.9-0.9-2.9-1c0,0,0.1,0,0.1,0c0.5,0,1,0.1,1.4,0.2
			c0.5,0.1,1,0.3,1.5,0.6c0.9,0.5,1.7,1.3,2.3,2.1c0.6,0.9,1.1,1.8,1.4,2.8c0,0.1,0.1,0.3,0.1,0.4c0,0,0,0,0,0
			c0.2,0.9,0.4,1.8,0.4,2.7c0,0.3,0,0.5,0,0.8l-0.1,0.8c0,0.5,0,1,0.1,1.5c0.2,1,0.6,1.9,1.1,2.7c0.3,0.4,0.6,0.8,1,1.2
			c0.2,0.2,0.4,0.4,0.5,0.6c0.2,0.2,0.4,0.4,0.5,0.7C25.8,17.3,25.9,17.5,25.8,17.8z"/>
		<path d="M24.7,17.6C24.7,17.6,24.7,17.6,24.7,17.6C24.7,17.6,24.7,17.6,24.7,17.6L24.7,17.6L24.7,17.6
			C24.7,17.6,24.7,17.5,24.7,17.6c0-0.1,0-0.1,0-0.1c0,0,0,0,0,0C24.7,17.5,24.7,17.6,24.7,17.6z"/>
		<path d="M20.6,6.2C20.6,6.2,20.6,6.2,20.6,6.2c-0.6-4.1-5.2-5.7-5.8-5.9c0,0-0.1,0-0.1,0s0.5,4-2.1,9.3c-0.3,0.7-0.7,1.4-1.1,2.1
			c-4.5,7.5-7.4,12-5.9,15.9c1.4,3.6,5.7,2.2,5.7,2.2c-3.3-0.2-4.5-5.2,0.7-9.5c0.2-0.1,0.4-0.3,0.5-0.4c0,0,0,0,0.1-0.1
			c3.3-2.7,5.5-4.9,6.8-7.6c0,0,0-0.1,0.1-0.1c0.6-1.3,0.9-2.8,1.1-4.4C20.6,7.1,20.6,6.7,20.6,6.2z M17,8.3
			c-0.1,1.1-0.4,2.1-0.8,3.1c-0.8,2-2.1,3.8-3.5,5.4c0,0-0.1,0.1-0.1,0.1c-0.3,0.4-0.6,0.7-1,1.1l-1.1,1.2c-0.7,0.8-1.3,1.6-1.9,2.5
			L8.5,22l-0.2,0.3c-0.1,0.2-0.2,0.5-0.4,0.7c-0.1,0.2-0.2,0.5-0.3,0.7c-0.1,0.2-0.2,0.5-0.2,0.7c-0.3,1-0.4,2-0.1,3.1
			c-0.3-0.5-0.4-1-0.4-1.5c0-0.5,0-1.1,0.1-1.6c0.2-1.1,0.6-2.1,1.1-3.1c0.5-1,1.2-1.8,1.8-2.7l0.5-0.6l0.5-0.6
			c0.3-0.4,0.7-0.8,1-1.2c0.2-0.3,0.4-0.5,0.6-0.8c0,0,0-0.1,0.1-0.1c0.4-0.5,0.8-1.1,1.2-1.6c0.3-0.4,0.6-0.9,0.9-1.3
			c0.3-0.4,0.5-0.9,0.8-1.4c0.5-0.9,0.8-1.9,1-2.9c0.2-1,0.3-2.1,0.1-3.1c0,0.1,0.1,0.2,0.1,0.3C17.1,6.3,17.1,7.3,17,8.3z"/>
		<path d="M7,30c0,0-5.8-2.2-4.6-8.3c0.9-4.5,4.1-4.3,5.7-9.6c0,0,0.5,2.3-0.8,5c-1.3,2.7-2.8,5.1-2.7,8.2C4.8,29.1,7,30,7,30z"/>
		<g>
			<path d="M9.1,8.5C8.8,8.4,8.6,8.3,8.3,8.3H8.2c-0.3,0-0.5,0-0.8,0.1c0-0.1,0.1-0.2,0.1-0.3c0.4-0.1,0.7-0.1,0.7-0.1h0.1
				c0,0,0.3,0,0.7,0.1C9,8.2,9.1,8.4,9.1,8.5z"/>
			<g>
				<path d="M8.1,5C8,5.4,7.9,5.8,7.8,6.2C7.6,7,7.4,7.7,7.3,8.2C7.1,8.3,6.9,8.4,6.7,8.5c-0.6,0.4-1,1.1-0.9,1.8
					C5.8,11,6.5,11,6.8,10.5C7,10.3,7.3,9.4,7.5,8.4v0c0,0,0,0,0-0.1c0-0.1,0-0.1,0.1-0.2c0,0,0,0,0,0c0.3-1,0.5-1.9,0.5-1.9h0.3
					l0,0l0.9-6C9.3,0.3,8.7,2.7,8.1,5z M7,9.6c-0.2,0.9-0.9,1.3-1,0.6c0-0.5,0.5-1.3,1.2-1.7C7.1,9.1,7,9.5,7,9.6z"/>
				<path d="M9.5,8.5C9.4,8.4,9.2,8.3,9,8.3c0,0-0.1,0-0.1,0c0,0,0-0.1,0-0.1C8.8,7.6,8.6,6.9,8.4,6.2C8.3,5.8,8.2,5.4,8.1,5
					C7.5,2.7,6.9,0.3,6.9,0.2l0.9,6l0,0h0.3c0,0,0.2,0.9,0.5,1.9h0c0,0,0,0.1,0,0.1c0,0.1,0,0.1,0.1,0.2v0c0,0,0,0,0,0
					c0.3,0.9,0.5,1.9,0.7,2.1c0.4,0.5,1,0.5,1.1-0.2C10.6,9.6,10.2,8.9,9.5,8.5z M10.2,10.2c-0.1,0.7-0.8,0.3-1-0.6
					c0-0.2-0.1-0.6-0.3-1.1C9.8,8.9,10.3,9.7,10.2,10.2z"/>
			</g>
		</g>
	</g>
</g>
</svg>
