<svg width="52" height="52" viewBox="0 0 52 52" fill="none" xmlns="http://www.w3.org/2000/svg">
<path fill-rule="evenodd" clip-rule="evenodd" d="M0 41.9067V19.4133L4.33333 16.64V40.2133L15.5 46.84L18 48.5L30.3333 40.6667V21.5V2.77333L34.0476 0H35.9048L52 11.0933V16.64L35.9048 5.54667H34.6667V41.5L18.9524 52H16.7143L0 41.9067ZM52 40.9067V19.4133L47.6667 16.64V38.1333L35.2857 46.4533H34.0476L32.8095 45.0667H32.1905L28.4762 47.4933V48.5333L34.0476 52H35.2857L52 40.9067ZM0 16.64V11.0933L16.7143 0H17.9524L21.6667 2.77333V37.7867L24.7619 39.52V40.9067L21.6667 42.9867H20.119L17.3333 40.9067V5.54667H16.0952L0 16.64Z" fill="#151515"/>
</svg>
