<svg width="52" height="52" viewBox="0 0 52 52" fill="none" xmlns="http://www.w3.org/2000/svg">
<path fill-rule="evenodd" clip-rule="evenodd" d="M16.1728 0.000416364C20.2786 -0.0289242 24.2441 1.49338 27.2755 4.26267L25.4505 6.26049C22.9226 3.95123 19.6159 2.68181 16.1921 2.70628C12.7683 2.73074 9.48009 4.04729 6.98547 6.39244C4.49084 8.73759 2.97388 11.9383 2.73818 15.3541C2.50248 18.7698 3.56542 22.1486 5.71428 24.8142L3.60764 26.5124C1.03071 23.3158 -0.243988 19.264 0.0386692 15.1678C0.321326 11.0716 2.14048 7.23324 5.13206 4.42091C8.12364 1.60858 12.0669 0.0297569 16.1728 0.000416364ZM21.3783 31.7629C18.8799 32.5846 16.2196 32.7891 13.6249 32.359L14.0675 29.6895C16.2312 30.0482 18.4495 29.8776 20.5329 29.1924C22.6163 28.5072 24.5029 27.3277 26.0312 25.7547C27.5595 24.1817 28.6843 22.2621 29.3092 20.1598C29.9342 18.0575 30.0408 15.8352 29.62 13.6827L32.2756 13.1635C32.7803 15.7448 32.6525 18.4098 31.903 20.9309C31.1535 23.4519 29.8047 25.754 27.9719 27.6404C26.1391 29.5267 23.8768 30.9412 21.3783 31.7629ZM7.52868 30.4458C7.66223 34.7691 9.0535 38.9596 11.5322 42.5043C14.0108 46.049 17.4693 48.7941 21.4841 50.4034C25.4989 52.0126 29.8959 52.4163 34.1366 51.565C38.3773 50.7137 42.2778 48.6443 45.3605 45.6102C48.4431 42.576 50.5742 38.7089 51.4927 34.4822C52.4112 30.2555 52.0774 25.8527 50.532 21.8128C48.9867 17.773 46.2969 14.2714 42.792 11.7368C39.287 9.2022 35.1191 7.7446 30.7985 7.54244L30.6503 10.7093C34.3551 10.8827 37.9289 12.1325 40.9342 14.3058C43.9395 16.4791 46.2459 19.4816 47.5709 22.9456C48.896 26.4095 49.1823 30.1848 48.3947 33.809C47.6071 37.4331 45.7798 40.749 43.1366 43.3507C40.4933 45.9523 37.1488 47.7267 33.5126 48.4567C29.8764 49.1866 26.1062 48.8405 22.6636 47.4606C19.2211 46.0807 16.2556 43.727 14.1303 40.6876C12.005 37.6481 10.812 34.0549 10.6975 30.3479L7.52868 30.4458ZM14.0482 14.0165C17.5578 10.514 22.137 8.28473 27.0585 7.6827L27.4435 10.8296C23.2235 11.3458 19.297 13.2573 16.2877 16.2605C13.2785 19.2637 11.359 23.1863 10.8343 27.4052L7.68815 27.0139C8.30015 22.0936 10.5387 17.5189 14.0482 14.0165Z" fill="#151515"/>
</svg>
