<?xml version="1.0" encoding="utf-8"?>
<!-- Generator: Adobe Illustrator 24.3.0, SVG Export Plug-In . SVG Version: 6.00 Build 0)  -->
<svg version="1.1" id="Layer_1" xmlns="http://www.w3.org/2000/svg" xmlns:xlink="http://www.w3.org/1999/xlink" x="0px" y="0px"
	 viewBox="0 0 578.4 136" style="enable-background:new 0 0 578.4 136;" xml:space="preserve">
<style type="text/css">
	.st0{fill:#FFFFFF;}
</style>
<g>
	<g>
		<g>
			<path class="st0" d="M163.4,0l-38.7,114.5H95l-5.9-16.8l0,0l-18-51.6l0,0c-1.2-4.3-3.5-7.8-6.6-10.9C59,30.1,52,27.4,42.6,27.4
				H31.7V86H43c9.4,0,16.8-2.7,21.9-7.8c3.1-3.1,5.5-6.6,6.6-11.3L83.6,102c-2,1.6-4.3,3.1-6.6,4.3c-9,5.1-19.5,7.4-31.3,7.4H0V0
				h45.3C57.4,0,65.7,0.4,75,5.1c7,3.9,11.7,9,14.9,16.4c1.6,3.1,2.3,6.3,3.1,9.4l16.8,61L138,0H163.4z"/>
			<polygon class="st0" points="89.1,97.7 89.1,97.7 89.1,97.7 71.5,46.1 			"/>
		</g>
	</g>
	<g>
		<path class="st0" d="M209.1,61.4c4.3,2.3,7.8,5.5,10.2,9.8c2.3,4.3,3.5,9,3.5,14.5s-1.2,10.2-3.5,14.5c-2.3,4.3-5.9,7.4-10.2,9.8
			c-4.3,2.3-9.8,3.5-15.2,3.5h-21.1V57.8h21.1C199.3,57.8,204.8,59,209.1,61.4z M204.8,97.7c2.7-2.7,4.3-6.6,4.3-12.1
			c0-5.1-1.6-9-4.3-12.1c-2.7-2.7-7-4.3-12.1-4.3H186v32.4h6.6C197.7,102,202,100.8,204.8,97.7z"/>
		<path class="st0" d="M231.7,62.5c-1.6-1.6-2.3-3.1-2.3-5.1s0.8-3.9,2.3-5.5c1.6-1.6,3.5-2,5.9-2s4.3,0.8,5.9,2
			c1.6,1.6,2.3,3.1,2.3,5.5c0,2-0.8,3.9-2.3,5.1c-1.6,1.6-3.5,2-5.9,2C235.3,64.9,233.3,64.1,231.7,62.5z M244.3,69.6v44.6h-13.7
			V69.6H244.3z"/>
		<path class="st0" d="M279.4,70.7c2.3,1.2,4.3,3.1,5.5,5.1v-6.3h13.7v44.6c0,3.9-0.8,7.8-2.3,10.9c-1.6,3.5-3.9,5.9-7.4,7.8
			s-7.4,3.1-12.5,3.1c-6.6,0-12.1-1.6-16-4.7s-6.3-7.4-7-12.5h13.3c0.4,1.6,1.6,3.1,3.1,3.9c1.6,1.2,3.5,1.6,5.9,1.6
			c2.7,0,5.1-0.8,6.6-2.3s2.3-4.3,2.3-7.8v-6.3c-1.2,2-3.1,3.9-5.5,5.1c-2.3,1.2-5.1,2-8.2,2c-3.5,0-7-0.8-10.2-2.7
			c-3.1-2-5.5-4.7-7-8.2c-1.6-3.5-2.7-7.4-2.7-12.1s0.8-8.6,2.7-12.1c1.6-3.5,3.9-6.3,7-7.8c3.1-2,6.3-2.7,10.2-2.7
			C274.3,68.8,277.1,69.6,279.4,70.7z M281.8,83.6c-2-2-4.3-3.1-7-3.1s-5.1,0.8-7,2.7c-2,2-2.7,4.7-2.7,8.2c0,3.5,0.8,6.3,2.7,8.2
			c2,2,4.3,3.1,7,3.1c2.7,0,5.1-1.2,7-3.1c2-2,2.7-4.7,2.7-8.2C284.9,88.3,283.7,85.6,281.8,83.6z"/>
		<path class="st0" d="M309.1,62.5c-1.6-1.6-2.3-3.1-2.3-5.1s0.8-3.9,2.3-5.5s3.5-2,5.9-2s4.3,0.8,5.9,2c1.6,1.6,2.3,3.1,2.3,5.5
			c0,2-0.8,3.9-2.3,5.1c-1.6,1.6-3.5,2-5.9,2C312.6,64.9,310.7,64.1,309.1,62.5z M322,69.6v44.6h-13.7V69.6H322z"/>
		<path class="st0" d="M401.4,57.8l-19.9,55.9h-17.2l-19.9-55.9h14.5l14.1,42.2l14.1-42.2H401.4z"/>
		<path class="st0" d="M448.6,95h-30.9c0.4,2.7,1.2,4.7,2.7,6.3c1.6,1.6,3.5,2.3,5.9,2.3c3.5,0,5.9-1.6,7-4.3h14.5
			c-0.8,2.7-2,5.5-3.9,7.8c-2,2.3-4.3,4.3-7.4,5.5c-2.7,1.2-6.3,2-9.8,2c-4.3,0-8.2-0.8-11.7-2.7c-3.5-2-6.3-4.7-7.8-7.8
			c-2-3.5-2.7-7.4-2.7-12.1s0.8-8.6,2.7-12.1c2-3.5,4.7-6.3,7.8-7.8c3.5-2,7.4-2.7,11.7-2.7c4.3,0,8.2,0.8,11.3,2.7
			c3.5,2,5.9,4.3,7.8,7.8c2,3.5,2.7,7.4,2.7,11.7C449,92.2,449,93.4,448.6,95z M435,87.1c0-2.3-0.8-4.3-2.3-5.5
			c-1.6-1.6-3.5-2-5.9-2s-4.3,0.8-5.9,2s-2.3,3.1-2.7,5.5H435z"/>
		<path class="st0" d="M495.5,73.9c3.1,3.5,4.7,8.2,4.7,14.1v26.2h-13.7V89.9c0-3.1-0.8-5.5-2.3-7s-3.5-2.3-6.3-2.3
			s-4.7,0.8-6.3,2.3s-2.3,3.9-2.3,7v24.2h-13.7V69.6h13.7v5.9c1.6-2,3.1-3.5,5.5-4.7c2.3-1.2,5.1-1.6,7.8-1.6
			C488.5,68.8,492.4,70.7,495.5,73.9z"/>
		<path class="st0" d="M534.6,102.4v11.7h-7c-5.1,0-9-1.2-11.7-3.5c-2.7-2.3-4.3-6.3-4.3-11.7V81.3h-5.5V70h5.5V58.6h13.7v10.9h9
			v11.3h-9v18c0,1.2,0.4,2.3,0.8,2.7c0.8,0.4,1.6,0.8,3.1,0.8H534.6z"/>
		<path class="st0" d="M549.9,112.6c-3.1-1.2-5.5-3.1-7-5.5c-1.6-2.3-2.7-5.1-3.1-7.8H553c0,1.6,0.8,2.7,2.3,3.9
			c1.2,0.8,2.7,1.6,4.7,1.6c1.6,0,3.1-0.4,3.9-1.2c0.8-0.8,1.6-1.6,1.6-2.7c0-1.2-0.8-2.3-2-2.7c-1.2-0.8-3.5-1.2-6.6-2
			c-3.1-0.8-5.9-1.6-7.8-2.3c-2-0.8-3.9-2-5.5-3.9c-1.6-2-2.3-4.3-2.3-7c0-2.7,0.8-4.7,2-7c1.6-2,3.5-3.9,6.3-5.1
			c2.7-1.2,5.9-2,9.8-2c5.5,0,10.2,1.6,13.3,4.3c3.1,2.7,5.1,6.3,5.5,10.9h-12.5c-0.4-1.6-0.8-2.7-2-3.5c-1.2-0.8-2.7-1.2-4.7-1.2
			c-1.6,0-2.7,0.4-3.5,0.8c-0.8,0.8-1.2,1.6-1.2,2.3c0,1.2,0.8,2.3,2,2.7c1.2,0.4,3.5,1.2,6.3,2c3.1,0.8,5.9,1.6,8.2,2.3
			c2,0.8,3.9,2.3,5.5,3.9c1.6,2,2.3,4.3,2.3,7.4c0,2.7-0.8,5.1-2.3,7c-1.6,2-3.5,3.5-6.3,4.7c-2.7,1.2-5.9,1.6-9.4,1.6
			C556.5,114.5,553,113.7,549.9,112.6z"/>
	</g>
</g>
</svg>
