<?xml version="1.0" encoding="utf-8"?>
<!-- Generator: Adobe Illustrator 24.3.0, SVG Export Plug-In . SVG Version: 6.00 Build 0)  -->
<svg version="1.1" id="Layer_1" xmlns="http://www.w3.org/2000/svg" xmlns:xlink="http://www.w3.org/1999/xlink" x="0px" y="0px"
	 viewBox="0 0 148 34.8" style="enable-background:new 0 0 148 34.8;" xml:space="preserve">
<style type="text/css">
	.st0{fill:#FFFFFF;}
</style>
<g>
	<g>
		<g>
			<path class="st0" d="M41.8,0l-9.9,29.3h-7.6L22.8,25v0l-4.6-13.2l0,0c-0.3-1.1-0.9-2-1.7-2.8c-1.4-1.3-3.2-2-5.6-2H8.1v15H11
				c2.4,0,4.3-0.7,5.6-2c0.8-0.8,1.4-1.7,1.7-2.9l3.1,9c-0.5,0.4-1.1,0.8-1.7,1.1c-2.3,1.3-5,1.9-8,1.9H0V0h11.6
				c3.1,0,5.2,0.1,7.6,1.3c1.8,1,3,2.3,3.8,4.2c0.4,0.8,0.6,1.6,0.8,2.4l4.3,15.6L35.3,0H41.8z"/>
			<polygon class="st0" points="22.8,25 22.8,25 22.8,25 18.3,11.8 			"/>
		</g>
	</g>
	<g>
		<path class="st0" d="M53.5,15.7c1.1,0.6,2,1.4,2.6,2.5c0.6,1.1,0.9,2.3,0.9,3.7c0,1.4-0.3,2.6-0.9,3.7c-0.6,1.1-1.5,1.9-2.6,2.5
			c-1.1,0.6-2.5,0.9-3.9,0.9h-5.4V14.8h5.4C51,14.8,52.4,15.1,53.5,15.7z M52.4,25c0.7-0.7,1.1-1.7,1.1-3.1c0-1.3-0.4-2.3-1.1-3.1
			c-0.7-0.7-1.8-1.1-3.1-1.1h-1.7v8.3h1.7C50.6,26.1,51.7,25.8,52.4,25z"/>
		<path class="st0" d="M59.3,16c-0.4-0.4-0.6-0.8-0.6-1.3c0-0.5,0.2-1,0.6-1.4c0.4-0.4,0.9-0.5,1.5-0.5c0.6,0,1.1,0.2,1.5,0.5
			c0.4,0.4,0.6,0.8,0.6,1.4c0,0.5-0.2,1-0.6,1.3c-0.4,0.4-0.9,0.5-1.5,0.5C60.2,16.6,59.7,16.4,59.3,16z M62.5,17.8v11.4H59V17.8
			H62.5z"/>
		<path class="st0" d="M71.5,18.1c0.6,0.3,1.1,0.8,1.4,1.3v-1.6h3.5v11.4c0,1-0.2,2-0.6,2.8c-0.4,0.9-1,1.5-1.9,2
			c-0.9,0.5-1.9,0.8-3.2,0.8c-1.7,0-3.1-0.4-4.1-1.2c-1-0.8-1.6-1.9-1.8-3.2h3.4c0.1,0.4,0.4,0.8,0.8,1c0.4,0.3,0.9,0.4,1.5,0.4
			c0.7,0,1.3-0.2,1.7-0.6c0.4-0.4,0.6-1.1,0.6-2v-1.6c-0.3,0.5-0.8,1-1.4,1.3c-0.6,0.3-1.3,0.5-2.1,0.5c-0.9,0-1.8-0.2-2.6-0.7
			c-0.8-0.5-1.4-1.2-1.8-2.1c-0.4-0.9-0.7-1.9-0.7-3.1c0-1.2,0.2-2.2,0.7-3.1c0.4-0.9,1-1.6,1.8-2c0.8-0.5,1.6-0.7,2.6-0.7
			C70.2,17.6,70.9,17.8,71.5,18.1z M72.1,21.4c-0.5-0.5-1.1-0.8-1.8-0.8c-0.7,0-1.3,0.2-1.8,0.7c-0.5,0.5-0.7,1.2-0.7,2.1
			c0,0.9,0.2,1.6,0.7,2.1c0.5,0.5,1.1,0.8,1.8,0.8c0.7,0,1.3-0.3,1.8-0.8c0.5-0.5,0.7-1.2,0.7-2.1C72.9,22.6,72.6,21.9,72.1,21.4z"
			/>
		<path class="st0" d="M79.1,16c-0.4-0.4-0.6-0.8-0.6-1.3c0-0.5,0.2-1,0.6-1.4c0.4-0.4,0.9-0.5,1.5-0.5c0.6,0,1.1,0.2,1.5,0.5
			c0.4,0.4,0.6,0.8,0.6,1.4c0,0.5-0.2,1-0.6,1.3c-0.4,0.4-0.9,0.5-1.5,0.5C80,16.6,79.5,16.4,79.1,16z M82.4,17.8v11.4h-3.5V17.8
			H82.4z"/>
		<path class="st0" d="M102.7,14.8l-5.1,14.3h-4.4l-5.1-14.3h3.7l3.6,10.8L99,14.8H102.7z"/>
		<path class="st0" d="M114.8,24.3h-7.9c0.1,0.7,0.3,1.2,0.7,1.6c0.4,0.4,0.9,0.6,1.5,0.6c0.9,0,1.5-0.4,1.8-1.1h3.7
			c-0.2,0.7-0.5,1.4-1,2c-0.5,0.6-1.1,1.1-1.9,1.4c-0.7,0.3-1.6,0.5-2.5,0.5c-1.1,0-2.1-0.2-3-0.7c-0.9-0.5-1.6-1.2-2-2
			c-0.5-0.9-0.7-1.9-0.7-3.1c0-1.2,0.2-2.2,0.7-3.1c0.5-0.9,1.2-1.6,2-2c0.9-0.5,1.9-0.7,3-0.7c1.1,0,2.1,0.2,2.9,0.7
			c0.9,0.5,1.5,1.1,2,2c0.5,0.9,0.7,1.9,0.7,3C114.9,23.6,114.9,23.9,114.8,24.3z M111.3,22.3c0-0.6-0.2-1.1-0.6-1.4
			c-0.4-0.4-0.9-0.5-1.5-0.5c-0.6,0-1.1,0.2-1.5,0.5c-0.4,0.3-0.6,0.8-0.7,1.4H111.3z"/>
		<path class="st0" d="M126.8,18.9c0.8,0.9,1.2,2.1,1.2,3.6v6.7h-3.5V23c0-0.8-0.2-1.4-0.6-1.8c-0.4-0.4-0.9-0.6-1.6-0.6
			c-0.7,0-1.2,0.2-1.6,0.6c-0.4,0.4-0.6,1-0.6,1.8v6.2h-3.5V17.8h3.5v1.5c0.4-0.5,0.8-0.9,1.4-1.2c0.6-0.3,1.3-0.4,2-0.4
			C125,17.6,126,18.1,126.8,18.9z"/>
		<path class="st0" d="M136.8,26.2v3H135c-1.3,0-2.3-0.3-3-0.9c-0.7-0.6-1.1-1.6-1.1-3v-4.5h-1.4v-2.9h1.4V15h3.5v2.8h2.3v2.9h-2.3
			v4.6c0,0.3,0.1,0.6,0.2,0.7c0.2,0.1,0.4,0.2,0.8,0.2H136.8z"/>
		<path class="st0" d="M140.7,28.8c-0.8-0.3-1.4-0.8-1.8-1.4c-0.4-0.6-0.7-1.3-0.8-2h3.4c0,0.4,0.2,0.7,0.6,1
			c0.3,0.2,0.7,0.4,1.2,0.4c0.4,0,0.8-0.1,1-0.3c0.2-0.2,0.4-0.4,0.4-0.7c0-0.3-0.2-0.6-0.5-0.7c-0.3-0.2-0.9-0.3-1.7-0.5
			c-0.8-0.2-1.5-0.4-2-0.6c-0.5-0.2-1-0.5-1.4-1c-0.4-0.5-0.6-1.1-0.6-1.8c0-0.7,0.2-1.2,0.5-1.8c0.4-0.5,0.9-1,1.6-1.3
			c0.7-0.3,1.5-0.5,2.5-0.5c1.4,0,2.6,0.4,3.4,1.1c0.8,0.7,1.3,1.6,1.4,2.8h-3.2c-0.1-0.4-0.2-0.7-0.5-0.9c-0.3-0.2-0.7-0.3-1.2-0.3
			c-0.4,0-0.7,0.1-0.9,0.2c-0.2,0.2-0.3,0.4-0.3,0.6c0,0.3,0.2,0.6,0.5,0.7s0.9,0.3,1.6,0.5c0.8,0.2,1.5,0.4,2.1,0.6
			c0.5,0.2,1,0.6,1.4,1c0.4,0.5,0.6,1.1,0.6,1.9c0,0.7-0.2,1.3-0.6,1.8c-0.4,0.5-0.9,0.9-1.6,1.2c-0.7,0.3-1.5,0.4-2.4,0.4
			C142.4,29.3,141.5,29.1,140.7,28.8z"/>
	</g>
</g>
</svg>
